# xmcd CD database file
#
# Track frame offsets:
#	150
#	34506
#	54709
#	72104
#	87066
#	109585
#	135101
#	160527
#	179112
#	198035
#	215305
#	228291
#	250722
#	272538
#	292424
#	321148
#	338128
#
# Disc length: 4707 seconds
#
# Revision: 0
# Processed by: cddbd v1.5.2PL0 Copyright (c) Steve Scherf et al.
# Submitted via: CDex 1.70beta2
#
DISCID=e6126111
DTITLE=Adderley, Nat - Much Brass - Work Song
DYEAR=1960
DGENRE=Jazz
TTITLE0=Blue Concept
TTITLE1=Little Miss
TTITLE2=Israel
TTITLE3=What next?
TTITLE4=Moving
TTITLE5=Blue Brass Groove
TTITLE6=Accents
TTITLE7=Sometimes I Feel Like A Motherless Child
TTITLE8=Worksong
TTITLE9=Pretty Memory
TTITLE10=I've Got A Crush On You
TTITLE11=Mean To Me
TTITLE12=Fallout
TTITLE13=Sack Of Woe
TTITLE14=My Heart Stood Still
TTITLE15=Violets For Your Furs
TTITLE16=Scrambled Eggs
EXTD=YEAR: 1960
EXTT0=
EXTT1=
EXTT2=
EXTT3=
EXTT4=
EXTT5=
EXTT6=
EXTT7=
EXTT8=
EXTT9=
EXTT10=
EXTT11=
EXTT12=
EXTT13=
EXTT14=
EXTT15=
EXTT16=
PLAYORDER=
